<?xml version="1.0" standalone="no"?>
<!DOCTYPE svg PUBLIC "-//W3C//DTD SVG 20010904//EN"
 "http://www.w3.org/TR/2001/REC-SVG-20010904/DTD/svg10.dtd">
<svg version="1.0" xmlns="http://www.w3.org/2000/svg"
 width="158.000000pt" height="158.000000pt" viewBox="0 0 158.000000 158.000000"
 preserveAspectRatio="xMidYMid meet">
<metadata>
Created by potrace 1.14, written by Peter Selinger 2001-2017
</metadata>
<g transform="translate(0.000000,158.000000) scale(0.100000,-0.100000)"
fill="#000000" stroke="none">
<path d="M492 1525 c-50 -28 -132 -103 -132 -120 0 -25 -33 -38 -105 -41 -41
-1 -91 -8 -111 -14 -99 -33 -140 -87 -62 -83 29 2 36 -1 32 -12 -4 -10 0 -15
15 -15 28 0 27 -6 -9 -47 -60 -68 -94 -157 -93 -246 0 -46 6 -53 32 -35 12 8
18 18 14 21 -3 4 -1 7 6 7 7 0 9 5 6 10 -3 6 -2 10 4 10 5 0 9 -12 7 -27 -4
-46 13 -57 40 -28 13 14 29 35 35 46 12 24 23 18 25 -14 2 -46 16 -101 36
-142 16 -32 25 -41 39 -38 11 3 19 10 19 16 0 6 10 0 22 -13 l22 -23 12 69
c14 86 33 130 71 172 l30 33 20 -48 c28 -65 51 -136 58 -175 3 -18 9 -46 14
-63 4 -16 7 -64 7 -105 l-1 -75 -30 -3 c-16 -2 -68 -21 -115 -43 -103 -48
-181 -122 -197 -187 -13 -50 -4 -58 37 -37 27 14 30 14 30 -1 0 -15 2 -15 23
-2 51 33 117 47 220 46 60 -1 105 -6 109 -12 5 -7 8 -7 8 2 0 8 5 10 13 5 6
-4 23 -9 37 -10 63 -8 85 -11 85 -13 0 -3 17 -6 65 -14 14 -2 25 -5 25 -6 0
-1 9 -3 20 -5 11 -1 36 -6 55 -10 19 -4 49 -8 65 -10 17 -2 30 -4 30 -5 0 -7
115 -21 206 -24 85 -4 144 14 155 46 20 65 -52 158 -169 217 l-64 33 2 51 c5
109 25 188 72 282 32 65 39 71 59 54 26 -21 39 -58 49 -138 5 -41 17 -60 38
-61 4 0 17 21 29 46 19 44 27 141 13 164 -3 6 -2 10 3 10 10 0 45 -38 82 -88
36 -49 51 -42 45 22 -5 64 -31 134 -57 158 -11 9 -20 20 -21 25 -1 4 -5 7 -9
6 -4 -2 -5 4 -2 11 4 9 15 13 31 10 38 -7 62 4 56 25 -11 41 -107 83 -182 79
-27 -1 -38 5 -50 23 -44 67 -122 131 -139 114 -3 -3 1 -26 11 -51 9 -25 13
-43 8 -40 -4 3 -21 8 -37 10 -16 3 -39 8 -51 10 -46 9 -188 -43 -180 -67 2 -6
14 -14 28 -18 13 -4 20 -8 14 -9 -18 -3 29 -19 59 -19 l29 -1 -29 -22 c-67
-52 -102 -107 -95 -151 0 -4 11 -3 23 4 18 9 20 9 15 -4 -10 -26 4 -27 47 -2
45 26 107 41 132 31 15 -6 15 -8 2 -24 -36 -41 -141 -257 -152 -312 -14 -72
-14 -72 -80 -66 -33 2 -78 5 -98 5 -36 1 -37 2 -53 58 -9 32 -28 90 -43 128
-14 39 -27 72 -27 75 0 8 -73 149 -101 198 -14 24 -23 47 -19 50 4 4 41 7 83
7 71 0 130 -18 152 -44 3 -3 20 -14 38 -23 43 -23 49 -7 21 56 -23 52 -134
170 -154 162 -6 -2 -12 2 -12 10 0 16 69 28 180 33 15 0 27 4 27 9 0 18 -69
80 -110 100 -54 25 -158 46 -199 40 -29 -4 -29 -4 -15 23 17 34 1 44 -33 21
-14 -8 -23 -10 -23 -4 0 6 5 14 10 17 12 7 13 42 2 49 -5 3 -27 -6 -50 -19z"/>
<path d="M388 254 c-2 -1 -24 -5 -51 -8 -76 -10 -127 -38 -127 -70 0 -18 -3
-18 75 -21 102 -6 228 -15 265 -20 19 -3 46 -7 60 -9 14 -2 25 -5 25 -6 0 -1
11 -3 25 -5 43 -6 72 -12 160 -35 162 -42 210 -51 221 -44 5 3 9 1 9 -3 0 -5
39 -8 88 -7 48 1 87 2 87 4 0 1 13 4 29 6 67 11 176 83 176 116 0 17 -44 30
-57 17 -4 -4 -21 -10 -38 -13 -16 -2 -32 -5 -35 -6 -16 -6 -199 6 -230 15 -8
2 -28 7 -45 10 -16 2 -57 10 -90 16 -33 6 -70 13 -82 14 -11 2 -29 5 -40 9
-10 3 -38 8 -63 11 -24 4 -48 9 -51 11 -18 10 -302 27 -311 18z"/>
</g>
</svg>
